<?xml version="1.0" encoding="utf-8"?>
<!-- Generator: Adobe Illustrator 23.0.0, SVG Export Plug-In . SVG Version: 6.00 Build 0)  -->
<svg version="1.1" id="Capa_1" xmlns="http://www.w3.org/2000/svg" xmlns:xlink="http://www.w3.org/1999/xlink" x="0px" y="0px"
	 viewBox="0 0 306.8 312.39" style="enable-background:new 0 0 306.8 312.39;" xml:space="preserve">
<style type="text/css">
	.st0{fill-rule:evenodd;clip-rule:evenodd;fill:#333333;}
</style>
<g>
	<g>
		<polygon class="st0" points="189.77,177.1 306.8,234.6 264.18,251.51 306.12,299.54 291.92,312.39 249.98,263.69 227.66,302.92 		
			"/>
	</g>
	<g>
		<rect x="91.81" class="st0" width="31.16" height="31.16"/>
		<g>
			<rect class="st0" width="60.66" height="31.16"/>
			
				<rect x="-14.75" y="14.75" transform="matrix(-1.836970e-16 1 -1 -1.836970e-16 45.9074 14.75)" class="st0" width="60.66" height="31.16"/>
		</g>
		<g>
			
				<rect x="231.19" y="14.75" transform="matrix(-1.836970e-16 1 -1 -1.836970e-16 291.8521 -231.1946)" class="st0" width="60.66" height="31.16"/>
			
				<rect x="216.44" transform="matrix(-1 -1.224647e-16 1.224647e-16 -1 493.5467 31.1574)" class="st0" width="60.66" height="31.16"/>
		</g>
		<rect x="154.13" class="st0" width="31.16" height="31.16"/>
		
			<rect y="154.13" transform="matrix(6.123234e-17 -1 1 6.123234e-17 -154.1297 185.2872)" class="st0" width="31.16" height="31.16"/>
		
			<rect y="91.81" transform="matrix(6.123234e-17 -1 1 6.123234e-17 -91.8149 122.9723)" class="st0" width="31.16" height="31.16"/>
		<g>
			
				<rect x="-14.75" y="231.19" transform="matrix(6.123234e-17 -1 1 6.123234e-17 -231.1946 262.3521)" class="st0" width="60.66" height="31.16"/>
			<rect y="245.94" class="st0" width="60.66" height="31.16"/>
		</g>
		
			<rect x="154.13" y="245.94" transform="matrix(-1 -1.224647e-16 1.224647e-16 -1 339.4169 523.0467)" class="st0" width="31.16" height="31.16"/>
		
			<rect x="91.81" y="245.94" transform="matrix(-1 -1.224647e-16 1.224647e-16 -1 214.7872 523.0467)" class="st0" width="31.16" height="31.16"/>
		
			<rect x="245.12" y="91.81" transform="matrix(-1.836970e-16 1 -1 -1.836970e-16 368.0882 -153.301)" class="st0" width="31.16" height="31.16"/>
		
			<rect x="245.12" y="154.13" transform="matrix(-1.836970e-16 1 -1 -1.836970e-16 430.4031 -90.9862)" class="st0" width="31.16" height="31.16"/>
	</g>
</g>
</svg>
